<?xml version="1.0" encoding="UTF-8"?><svg id="Layer_1" xmlns="http://www.w3.org/2000/svg" viewBox="0 0 179.67 45"><defs><style>.cls-1{fill:#fff;}</style></defs><g id="GQ_logo"><polygon class="cls-1" points="104.28 19.19 104.28 11.68 114.35 11.68 114.35 9.02 101.63 9.02 101.63 19.19 104.28 19.19"/><rect class="cls-1" x="101.63" y=".43" width="13.52" height="2.63"/><path class="cls-1" d="m128.59,19.6c5.44,0,9.84-4.37,9.84-9.79S134.03.03,128.59.03s-9.84,4.37-9.84,9.79,4.37,9.79,9.84,9.79Zm0-16.94c3.99,0,7.18,3.19,7.18,7.16s-3.19,7.16-7.18,7.16-7.18-3.19-7.18-7.16,3.17-7.16,7.18-7.16Z"/><path class="cls-1" d="m92.89,8.92c-1.05-.31-2.22-1-5.7-4.11l-4.8-4.34h-2.66v18.73h2.66V4.11l2.99,2.68c4.27,3.83,5.57,4.47,7.51,4.91v7.49h2.66V.43h-2.66v8.48h0Z"/><path class="cls-1" d="m37.54,6.21c0-3.19-2.71-5.78-6.03-5.78h-8.82c0,1.12.43,4.09,4.17,8.56h-4.14v10.17h2.63v-7.54h3.94c2.02,2.04,5.19,5.29,5.19,7.54h2.71c0-2.63-2.12-5.37-4.27-7.69,2.79-.66,4.63-3.02,4.63-5.26Zm-6.06,2.79h-1c-.31-.31-.56-.59-.79-.82-1.61-1.79-2.89-3.63-3.6-5.19h5.39c1.89,0,3.4,1.43,3.4,3.25s-1.51,2.76-3.4,2.76Z"/><polygon class="cls-1" points="170.57 34.14 164.87 25.73 161.63 25.73 169.24 36.87 169.24 44.59 171.9 44.59 171.9 36.87 179.46 25.73 176.24 25.73 170.57 34.14"/><path class="cls-1" d="m121.07,33.14c-1.12-5.32-6.36-8.69-11.68-7.56-1.79.38-3.37,1.23-4.63,2.38-.92-.33-1.94-.64-3.07-.92l-.61,2.43c.72.18,1.38.36,1.99.56-1.28,2.07-1.81,4.63-1.25,7.18,1.12,5.32,6.36,8.69,11.68,7.56,1.74-.36,3.3-1.18,4.52-2.3,1.07.51,2.12.87,3.14,1.18l.72-2.4c-.72-.2-1.43-.43-2.15-.77,1.33-2.07,1.89-4.7,1.33-7.33Zm-8.15,9.05c-3.88.82-7.72-1.64-8.53-5.52-.43-2.04.05-4.04,1.15-5.62,1.69.92,3.07,2.27,4.75,4.63,1.79,2.5,3.55,4.19,5.26,5.39-.77.54-1.66.92-2.63,1.12Zm4.45-2.94c-1.61-1.07-3.3-2.61-5.03-5.01-1.74-2.43-3.25-3.94-4.93-4.98.74-.51,1.61-.87,2.53-1.07,3.88-.82,7.72,1.64,8.53,5.52.43,1.99-.03,3.99-1.1,5.55Z"/><path class="cls-1" d="m152.48,25.73l-7.41,18.86h2.86l2.3-5.88,1.05.95c4.37,3.94,6.59,4.88,8.36,4.93h3.25l-7.41-18.86h-2.99Zm.61,11.91l-1.79-1.64.26-.61.1-.26,2.35-5.95,4.93,12.6c-1.1-.26-2.25-.87-5.85-4.14Z"/><path class="cls-1" d="m143.25,19.17h2.66v-7.51h3.96c2.02,2.04,5.19,5.29,5.19,7.54h2.71c0-2.63-2.12-5.37-4.27-7.69,2.76-.66,4.63-3.04,4.63-5.29,0-3.19-2.71-5.78-6.03-5.78h-8.82c0,1.12.43,4.09,4.17,8.56h-4.14v10.17h-.05Zm3.42-16.2h5.39c1.89,0,3.4,1.43,3.4,3.25s-1.51,2.79-3.4,2.79h-1c-.31-.31-.56-.59-.79-.82-1.61-1.79-2.89-3.63-3.6-5.21Z"/><path class="cls-1" d="m2.66,9.79c0-3.96,3.19-7.16,7.16-7.16,1.94,0,3.68.77,4.98,2.02l1.84-1.87c-1.76-1.71-4.14-2.79-6.82-2.79C4.4,0,0,4.4,0,9.81s4.4,9.81,9.81,9.81c.79,0,1.56-.1,2.3-.28v-2.76c-.72.26-1.51.38-2.3.38-3.96,0-7.16-3.22-7.16-7.18Z"/><polygon class="cls-1" points="7.67 11.35 14.82 11.35 14.82 14.95 14.82 18.25 14.82 19.19 17.45 19.19 17.45 8.71 7.67 8.71 7.67 11.35"/><path class="cls-1" d="m179.67,9.79c0-5.19-4.22-9.38-9.38-9.38h-7.28v2.66h7.23c3.73,0,6.75,3.02,6.75,6.75s-3.02,6.75-6.75,6.75h-4.63V5.72h-2.63v13.47h7.28c5.21,0,9.4-4.22,9.4-9.4Z"/><path class="cls-1" d="m139.52,37.13c0,2.89-2.35,5.24-5.24,5.24s-5.24-2.35-5.24-5.24v-11.32h-2.63v11.32c0,4.34,3.55,7.87,7.87,7.87s7.87-3.55,7.87-7.87v-11.32h-2.63v11.32Z"/><rect class="cls-1" x="42.47" y=".43" width="13.52" height="2.63"/><polygon class="cls-1" points="45.1 11.68 55.2 11.68 55.2 9.02 42.47 9.02 42.47 11.4 42.47 11.68 42.47 16.53 42.47 19.01 42.47 19.19 56.01 19.19 56.01 16.53 45.1 16.53 45.1 11.68"/><rect class="cls-1" x="61.12" y=".43" width="13.52" height="2.63"/><polygon class="cls-1" points="63.76 11.68 73.82 11.68 73.82 9.02 61.12 9.02 61.12 11.4 61.12 11.68 61.12 16.53 61.12 19.01 61.12 19.19 74.62 19.19 74.62 16.53 63.76 16.53 63.76 11.68"/></g></svg>