<svg xmlns="http://www.w3.org/2000/svg" fill="none" viewBox="0 0 1057 300" height="300" width="1057">
<path fill="black" d="M71.307 111.382L32.4574 57.264L15.2682 76.6723V111.382H0V2.08643H15.2682V59.3506L66.4383 2.08643H84.323L43.0226 46.8313L89.3573 111.382H71.307Z"></path>
<path fill="black" d="M114.661 111.382V98.3657H145.562V15.1025H114.661V2.08643H191.532V15.1025H160.83V98.3657H191.532V111.382H114.661Z"></path>
<path fill="black" d="M349.878 77.0367C356.634 92.8348 371.207 100.982 386.144 100.982C401.081 100.982 411.978 94.7227 411.978 82.0709C411.978 72.1681 405.221 68.1937 393.596 65.4116L371.903 60.2118C357.495 56.8998 345.705 48.7524 345.705 31.5963C345.738 13.0161 360.642 0 382.17 0C401.777 0 415.654 9.20731 422.41 21.5279L412.706 32.0931C407.672 20.6336 396.742 12.4862 382.17 12.4862C368.822 12.4862 359.946 19.077 359.946 30.8677C359.946 41.1017 367.233 44.5793 378.527 47.1626L397.802 51.6669C413.766 55.4757 426.087 62.9608 426.087 81.6735C426.087 101.612 408.732 113.435 386.177 113.435C366.239 113.435 348.023 104.062 340.737 88.463L349.944 77.0036L349.878 77.0367Z"></path>
<path fill="black" d="M522.531 111.382L483.649 57.264L466.493 76.6723V111.382H451.224V2.08643H466.493V59.3506L517.663 2.08643H535.547L494.247 46.8313L540.549 111.382H522.531Z"></path>
<path fill="black" d="M267.674 12.8505C244.093 12.8505 228.825 30.0397 228.825 56.7342C228.825 83.4288 244.093 100.618 267.674 100.618C291.256 100.618 306.358 83.4288 306.358 56.7342C306.358 30.0397 291.256 12.8505 267.674 12.8505ZM267.674 113.468C235.747 113.468 213.358 90.384 213.358 56.7342C213.358 23.0845 235.747 0 267.674 0C299.602 0 321.991 23.0845 321.991 56.7342C321.991 90.384 299.436 113.468 267.674 113.468Z"></path>
<path fill="black" d="M562.706 1.85474V113.469H674.319V32.888L643.286 1.85474H562.706Z"></path>
<path fill="black" d="M349.878 77.0367C356.634 92.8348 371.207 100.982 386.144 100.982C401.081 100.982 411.978 94.7227 411.978 82.0709C411.978 72.1681 405.221 68.1937 393.596 65.4116L371.903 60.2118C357.495 56.8998 345.705 48.7524 345.705 31.5963C345.738 13.0161 360.642 0 382.17 0C401.777 0 415.654 9.20731 422.41 21.5279L412.706 32.0931C407.672 20.6336 396.742 12.4862 382.17 12.4862C368.822 12.4862 359.946 19.077 359.946 30.8677C359.946 41.1017 367.233 44.5793 378.527 47.1626L397.802 51.6669C413.766 55.4757 426.087 62.9608 426.087 81.6735C426.087 101.612 408.732 113.435 386.177 113.435C366.239 113.435 348.023 104.062 340.737 88.463L349.944 77.0036L349.878 77.0367Z"></path>
<path fill="black" d="M522.531 111.382L483.649 57.264L466.493 76.6723V111.382H451.224V2.08643H466.493V59.3506L517.663 2.08643H535.547L494.247 46.8313L540.549 111.382H522.531Z"></path>
<path fill="black" d="M267.674 12.8505C244.093 12.8505 228.825 30.0397 228.825 56.7342C228.825 83.4288 244.093 100.618 267.674 100.618C291.256 100.618 306.358 83.4288 306.358 56.7342C306.358 30.0397 291.256 12.8505 267.674 12.8505ZM267.674 113.468C235.747 113.468 213.358 90.384 213.358 56.7342C213.358 23.0845 235.747 0 267.674 0C299.602 0 321.991 23.0845 321.991 56.7342C321.991 90.384 299.436 113.468 267.674 113.468Z"></path>
<path fill="black" d="M562.706 1.85474V113.469H674.319V32.888L643.286 1.85474H562.706Z"></path>
<g clip-path="url(#clip0_6020_50)">
<path fill="black" d="M0 212.018C0 173.974 24.9693 153.588 53.7126 153.588C78.0417 153.588 96.3728 167.808 98.9 188.194H83.568C81.344 174.918 69.3479 165.752 53.7126 165.752C31.6076 165.752 15.1635 181.387 15.1635 212.018C15.1635 237.931 30.4956 257.037 52.9039 257.037C73.122 257.037 86.23 245.512 86.23 223.07V221.015H51.4887V208.85H99.3381V266.674H87.4768V251.342C81.4788 261.283 68.0338 269.033 52.3985 269.033C20.0496 269.066 0 244.266 0 212.018Z"></path>
<path fill="black" d="M114.333 266.674V190.553H127.913V203.189C131.687 194.495 140.077 188.026 151.77 188.026C152.714 188.026 153.994 188.026 155.241 188.194V201.605C154.129 201.437 152.882 201.302 150.962 201.302C136.27 201.302 127.913 209.524 127.913 226.406V266.674H114.333Z"></path>
<path fill="black" d="M159.352 228.293C159.352 204.908 174.684 188.026 195.509 188.026C218.254 188.026 230.722 203.964 230.722 228.462V231.158H172.898C173.201 248.545 183.31 258.486 196.418 258.486C205.752 258.486 214.581 254.846 216.468 243.154H229.879C228.296 256.565 217.883 269.066 196.25 269.066C173.505 269.066 159.285 254.678 159.285 228.327L159.352 228.293ZM216.198 221.52C216.198 207.94 208.785 198.775 195.509 198.775C182.232 198.775 174.347 208.715 173.404 221.52H216.198Z"></path>
<path fill="black" d="M241.471 228.293C241.471 204.908 256.803 188.026 277.628 188.026C300.373 188.026 312.841 203.964 312.841 228.462V231.158H255.017C255.32 248.545 265.429 258.486 278.538 258.486C287.872 258.486 296.7 254.846 298.587 243.154H311.998C310.415 256.565 300.002 269.066 278.369 269.066C255.624 269.066 241.404 254.678 241.404 228.327L241.471 228.293ZM298.351 221.52C298.351 207.94 290.938 198.775 277.661 198.775C264.385 198.775 256.5 208.715 255.556 221.52H298.351Z"></path>
<path fill="black" d="M325.174 266.674V190.553H338.754V200.83C342.696 194.192 351.862 188.026 362.139 188.026C379.662 188.026 390.242 199.078 390.242 218.656V266.674H376.663V220.408C376.663 206.02 371.911 198.775 359.915 198.775C346.639 198.775 338.754 208.884 338.754 220.88V266.674H325.174Z"></path>
<path fill="black" d="M431.319 266.674H417.739V201.774H403.35V190.553H417.739V176.501C417.739 161.641 427.848 153.588 439.541 153.588C442.843 153.588 445.876 154.363 447.291 155.003V166.527C445.876 166.359 444.123 166.055 442.405 166.055C435.295 166.055 431.352 170.166 431.352 177.445V190.553H447.156V201.774H431.352V266.708L431.319 266.674Z"></path>
<path fill="black" d="M455.311 228.462C455.311 204.773 470.778 188.026 492.748 188.026C514.718 188.026 530.185 204.773 530.185 228.462C530.185 252.151 514.55 269.066 492.748 269.066C470.946 269.066 455.311 252.791 455.311 228.462ZM516.133 228.462C516.133 210.602 506.968 198.775 492.748 198.775C478.528 198.775 469.362 210.636 469.362 228.462C469.362 246.287 478.191 258.486 492.748 258.486C507.305 258.486 516.133 246.321 516.133 228.462Z"></path>
<path fill="black" d="M542.316 266.674V190.553H555.896V203.189C559.67 194.495 568.06 188.026 579.753 188.026C580.696 188.026 581.977 188.026 583.224 188.194V201.605C582.112 201.437 580.865 201.302 578.944 201.302C564.252 201.302 555.896 209.524 555.896 226.406V266.674H542.316Z"></path>
<path fill="black" d="M587.335 228.63C587.335 205.582 601.083 188.026 622.716 188.026C635.353 188.026 643.709 194.967 647.214 200.831V156.115H660.794V266.674H647.214V256.093C643.103 263.203 633.803 269.033 622.413 269.033C602.498 269.033 587.335 254.51 587.335 228.597V228.63ZM648.157 228.462C648.157 210.299 638.52 198.775 624.772 198.775C611.024 198.775 601.386 210.771 601.386 228.63C601.386 246.49 610.855 258.486 624.772 258.486C638.689 258.486 648.157 246.793 648.157 228.462Z"></path>
<path fill="black" d="M805.757 254.678L817.45 266.674L808.284 275.199L795.817 262.26C788.235 266.674 779.373 269.066 769.769 269.066C740.082 269.066 717.337 246.153 717.337 211.411C717.337 176.67 739.88 153.588 769.735 153.588C799.591 153.588 822.168 176.636 822.168 211.411C822.168 229.574 816.001 244.569 805.723 254.678H805.757ZM786.82 252.926L771.959 237.594L780.956 229.068L796.592 245.175C803.23 237.29 807.004 225.732 807.004 211.378C807.004 183.106 791.84 165.718 769.735 165.718C747.63 165.718 732.467 183.106 732.467 211.378C732.467 239.649 747.327 257.037 769.735 257.037C776.07 257.037 781.9 255.621 786.786 252.926H786.82Z"></path>
<path fill="black" d="M837.5 239.043V190.553H851.079V236.212C851.079 250.735 855.965 258.486 868.467 258.486C880.968 258.486 887.91 249.017 887.91 232.573V190.553H901.321V266.674H888.045V256.093C884.406 264.315 875.105 269.033 864.996 269.033C847.137 269.033 837.5 258.283 837.5 239.009V239.043Z"></path>
<path fill="black" d="M913.755 245.849C913.755 231.158 925.448 224.351 939.028 222.16L955.303 219.633C961.133 218.69 963.054 216.634 963.054 212.051C963.054 203.695 956.584 198.775 947.722 198.775C936.029 198.775 930.031 204.941 929.728 214.41H916.148C916.62 200.527 927.537 188.026 946.643 188.026C965.749 188.026 976.33 199.247 976.33 216.769V266.674H963.391V256.396C959.617 264.281 951.395 269.033 940.005 269.033C925.482 269.033 913.789 260.204 913.789 245.816L913.755 245.849ZM963.054 237.931V226.71C962.11 228.125 959.28 229.068 954.697 230.012L943.644 232.067C934.647 233.82 927.841 237.762 927.841 245.816C927.841 253.869 934.176 258.452 941.892 258.452C954.057 258.452 963.054 250.23 963.054 237.931Z"></path>
<path fill="black" d="M1001.43 300L1015.32 263.978L984.822 190.519H999.817L1018.75 239.177L1022.39 248.511C1023.51 245.344 1024.62 242.176 1025.7 239.177L1042.44 190.519H1056.66L1015.76 299.966H1001.37L1001.43 300Z"></path>
</g>
<defs>
<clipPath id="clip0_6020_50">
<rect transform="translate(0 153.588)" fill="white" height="146.412" width="1056.7"></rect>
</clipPath>
</defs>
</svg>
